<svg width="23" height="16" viewBox="0 0 23 16" fill="none" xmlns="http://www.w3.org/2000/svg">
<path d="M22.5127 2.43491L22.5402 2.61458C22.2742 1.67133 21.5558 0.943492 20.6429 0.678576L20.6236 0.673992C18.907 0.208326 11.9991 0.208326 11.9991 0.208326C11.9991 0.208326 5.10874 0.199159 3.37467 0.673992C2.44433 0.943492 1.72501 1.67133 1.46353 2.59533L1.45894 2.61458C0.817609 5.96133 0.813022 9.98274 1.48738 13.566L1.45894 13.3845C1.72501 14.3277 2.44341 15.0556 3.35632 15.3205L3.37559 15.3251C5.09039 15.7917 12.0001 15.7917 12.0001 15.7917C12.0001 15.7917 18.8895 15.7917 20.6245 15.3251C21.5558 15.0556 22.2751 14.3277 22.5366 13.4037L22.5412 13.3845C22.8329 11.828 22.9999 10.0368 22.9999 8.20716C22.9999 8.14024 22.9999 8.07241 22.999 8.00458C22.9999 7.94224 22.9999 7.86799 22.9999 7.79374C22.9999 5.96316 22.8329 4.17199 22.5127 2.43491ZM9.79531 11.3467V4.66149L15.5443 8.00916L9.79531 11.3467Z" fill="white"/>
</svg>
